<svg xmlns="http://www.w3.org/2000/svg" width="1000" height="360">
<rect width="100%" height="100%" fill="white"/>
<text x="60" y="28" font-family="sans-serif" font-size="18">0b941d85cf228741.mp4</text>
<rect x="71.5" y="60" width="17.2" height="240" fill="#ffd966" opacity="0.35"/>
<rect x="93.4" y="60" width="10.8" height="240" fill="#ffd966" opacity="0.35"/>
<rect x="117.1" y="60" width="7.8" height="240" fill="#ffd966" opacity="0.35"/>
<rect x="129.0" y="60" width="11.3" height="240" fill="#ffd966" opacity="0.35"/>
<rect x="151.0" y="60" width="5.3" height="240" fill="#ffd966" opacity="0.35"/>
<rect x="158.0" y="60" width="11.0" height="240" fill="#ffd966" opacity="0.35"/>
<rect x="206.1" y="60" width="8.7" height="240" fill="#ffd966" opacity="0.35"/>
<rect x="226.1" y="60" width="6.4" height="240" fill="#ffd966" opacity="0.35"/>
<rect x="236.3" y="60" width="23.5" height="240" fill="#ffd966" opacity="0.35"/>
<rect x="336.2" y="60" width="18.2" height="240" fill="#ffd966" opacity="0.35"/>
<rect x="368.9" y="60" width="21.1" height="240" fill="#ffd966" opacity="0.35"/>
<rect x="494.3" y="60" width="10.2" height="240" fill="#ffd966" opacity="0.35"/>
<rect x="507.9" y="60" width="5.7" height="240" fill="#ffd966" opacity="0.35"/>
<rect x="559.5" y="60" width="5.7" height="240" fill="#ffd966" opacity="0.35"/>
<rect x="670.5" y="60" width="31.6" height="240" fill="#ffd966" opacity="0.35"/>
<rect x="706.0" y="60" width="36.3" height="240" fill="#ffd966" opacity="0.35"/>
<rect x="893.7" y="60" width="46.3" height="240" fill="#ffd966" opacity="0.35"/>
<line x1="60" y1="300.0" x2="940" y2="300.0" stroke="#ddd"/>
<text x="18" y="305.0" font-family="sans-serif" font-size="12">0.0</text>
<line x1="60" y1="180.0" x2="940" y2="180.0" stroke="#ddd"/>
<text x="18" y="185.0" font-family="sans-serif" font-size="12">0.5</text>
<line x1="60" y1="60.0" x2="940" y2="60.0" stroke="#ddd"/>
<text x="18" y="65.0" font-family="sans-serif" font-size="12">1.0</text>
<polyline points="61.6,253.2 64.8,286.5 68.0,181.7 71.2,215.9 74.3,224.7 77.5,289.0 80.7,236.1 83.9,228.1 87.1,129.8" fill="none" stroke="#1464f4" stroke-width="1.5"/>
<polyline points="61.6,117.0 64.8,281.5 68.0,131.6 71.2,137.2 74.3,98.1 77.5,282.1 80.7,259.1 83.9,237.2 87.1,77.8" fill="none" stroke="#e04b36" stroke-width="1.5"/>
<text x="60" y="342" font-family="sans-serif" font-size="12">0 s</text>
<text x="890" y="342" font-family="sans-serif" font-size="12">589 s</text>
<text x="810" y="28" fill="#1464f4" font-family="sans-serif" font-size="12">linear</text>
<text x="880" y="28" fill="#e04b36" font-family="sans-serif" font-size="12">MLP</text>
</svg>